<svg width="1134" height="1134" viewBox="0 0 1134 1134" fill="none" xmlns="http://www.w3.org/2000/svg">
<g clip-path="url(#clip0_2001_3)">
<rect x="146" y="157" width="812" height="855" fill="white"/>
<path d="M180.807 0C163.55 0 146.937 2.54684 131.151 7.02148L130.282 7.32813C98.7491 18.499 77.8079 31.5764 55.1568 54.2402C25.6479 83.7659 8.20002 118.173 1.72126 159.611C0.272471 168.878 -0.275212 311.74 0.12946 575.473L0.731022 967.635C1.17261 973.202 1.89631 978.675 2.82673 984.086L6.6568 996.732C23.5952 1052.66 60.0665 1094.94 111.563 1118.34C124.834 1124.38 143.947 1129.7 163.96 1133.01C165.436 1133.15 166.952 1133.14 168.438 1133.24C174.309 1133.71 354.135 1133.97 574.499 1133.81C907.277 1133.56 972.809 1134.27 999.729 1127.6C1000.98 1127.27 1002.26 1126.99 1003.5 1126.63C1011.11 1124.28 1015.97 1121.21 1025.13 1116.98C1078.86 1092.16 1118.35 1042.73 1130.04 985.672C1134.07 966 1134.18 951.948 1133.61 558.672L1133.02 164.186C1132.18 154.854 1130.51 145.792 1128.32 136.932L1128.14 136.365C1108.71 73.8616 1065.23 28.9217 1003.23 7.1543C987.295 2.58474 970.497 0 953.051 0H566.878H180.807ZM178.188 179.145L564.155 179.693L950.124 180.242L950.675 571.672L951.225 963.1H564.706H178.188V875.332C178.188 819.269 178.967 787.302 180.346 786.84C181.533 786.442 204.561 786.396 231.518 786.738L280.532 787.359V824.205V861.051L564.155 860.5L847.78 859.949V571.129V282.307L564.155 281.756L280.532 281.205V319.215V357.227H229.36H178.188V268.186V179.145ZM178.188 389.801H228.35H278.51L345.391 445.541C403.436 493.916 428.55 515.079 447.262 531.387C451.638 535.201 451.983 535.143 459.534 529.332C463.807 526.044 493.627 499.795 525.801 471C557.976 442.205 591.764 412.155 600.889 404.223L617.481 389.801H672.217H726.952L726.395 570.586L725.839 751.371L673.034 751.953L620.227 752.535V633.059C620.227 567.347 619.676 513.582 619.003 513.582C617.591 513.582 567.553 557.433 501.921 616.189C476.905 638.584 454.829 656.902 452.864 656.895C450.899 656.887 439.002 647.963 426.426 637.063C413.851 626.162 376.126 593.767 342.592 565.076L281.622 512.91L280.532 632.141L279.444 751.371L228.817 751.955L178.188 752.537V571.17V389.801Z" fill="#181818"/>
</g>
<defs>
<clipPath id="clip0_2001_3">
<rect width="1133.86" height="1133.86" fill="white"/>
</clipPath>
</defs>
</svg>
